<?xml version="1.0" encoding="UTF-8"?>
<svg id="Layer_1" data-name="Layer 1" xmlns="http://www.w3.org/2000/svg" width="48.75in" height="11.36in" viewBox="0 0 3509.87 817.69">
  <g>
    <path d="M193.77,358.94c58.92,0,127.97-26.99,118.28-88.16-12.97-81.86-148.42-65.22-156.68-117.4-3.92-24.74,24.65-34.63,49.39-34.63,22.49,0,39.52,8.1,41.79,22.49,1.71,10.8-5.34,20.24-14.81,22.94,2.92,18.44,20.16,27.89,35.9,27.89,18.44,0,31.6-13.49,28.46-33.29-5.49-34.63-54.14-43.63-91.02-43.63-57.12,0-120.7,27.44-111.86,83.21,12.89,81.41,151.66,71.52,159.71,122.34,4.49,28.34-37.25,34.63-58.39,34.63-33.28,0-46.07-12.59-48.07-25.19-1.99-12.59,4.18-24.74,14.92-27.89-2.31-20.24-21.42-30.14-37.16-30.14-22.49,0-35.76,18.44-32.77,37.33,5.77,36.43,58.66,49.48,102.29,49.48h0ZM465.51,115.15c-80.96,0-136.82,64.77-124.64,141.69,9.4,59.37,60.7,102.1,125.02,102.1,80.06,0,136.92-67.02,125.09-141.69-9.4-59.37-60.7-102.1-125.47-102.1h0ZM465.77,355.34c-22.04,0-30.91-24.74-35.11-51.28-7.41-46.78-14.51-185.32,34.97-185.32,22.49,0,31.5,25.64,35.7,52.18,8.41,53.08,14.36,184.42-35.56,184.42h0ZM636.27,460.59c62.97,0,78.66-65.67,78.66-119.65l-.44-218.6h42.73l-.12-3.6h-31.94c-82.76,0-85.49-113.8-32.42-113.8,14.84,0,22.19,9.45,24.32,22.94,2.64,16.64-4.96,28.34-23.73,31.94,4.04,28.34,24.31,42.73,46.35,42.73,28.34,0,44.71-21.59,40.22-49.93-4.42-27.89-29.03-52.63-74.01-52.63-66.57,0-80.42,51.73-72.95,118.75h-36.43l.12,3.6h36.43l1.03,219.5c35.14,11.69,45.45,34.18,48.72,54.87,5.41,34.18-9.32,57.57-30.46,57.57-12.59,0-18.45-8.55-20.16-19.34-2.42-15.29,4.44-28.79,21.79-32.83-4.87-27.89-25.97-41.83-47.56-41.83-26.09,0-43.64,19.79-39.23,47.68,4.35,27.44,29.93,52.63,69.06,52.63h0ZM931.74,122.34l.32-3.6h-47.86l-.04-89.51h-3.6c-.74,26.54-2.1,54.88-15.14,71.97-17.13,13.94-44,17.54-75.49,17.54h-19.79l-.33,3.6h33.52v171.82c.11,49.03,27.35,64.77,57.48,64.77,35.09,0,62.99-19.79,64.2-57.57h-3.6c-1.67,20.69-9.57,33.28-21.27,33.28-16.19,0-15.71-22.49-15.85-40.48l-.09-171.82h47.54Z"/>
    <path d="M124.43,784.05c-66.04-3.64-64-85.47-63.9-133.65l.05-134.56c.21-53.19-1.12-130.47,63.84-133.65l.02-2.73C8.93,384.91.65,470.38.11,544.48L0,621.31c-.19,96.38,22.62,160.02,124.4,165.47l.02-2.73h0ZM283.85,718.59c81.37,0,142.9-73.65,128.5-164.57-9.58-60.46-45.69-81.83-79.79-81.83-37.9,0-64.71,27.63-76.47,75.79l.13-15.33c.01-20,1.17-58.64-42.93-58.64-28.64,0-58.32,16.37-77.34,34.09l2.39,3.64c7.25-5.91,13.04-9.55,20.31-9.55,16.37,0,16.37,17.28,16.31,34.1l.3,220.03c-.02,48.64-4.04,57.74-38.13,57.74l.12,3.64h166.84l-.12-3.64h-45.91l-2-101.09c9.27,3.21,19.02,5.62,27.78,5.62h0ZM256.92,559.47c6.84-30.53,20.39-61.81,39.66-61.81,12.27,0,23.24,11.82,29.5,51.37,10.87,68.64-.54,165.93-45.55,165.93-20.91,0-23.7-20.46-23.66-51.82l.05-103.66h0ZM718.29,663.13c-1.21,18.18-9.2,30.91-19.2,30.91-16.37,0-15.87-22.73-16.03-40.91l-.49-178.2c-8.3,13.64-18.27,19.55-30.54,19.55-23.18,0-47.17-22.28-77.17-22.28-89.1,0-141.1,85.01-128.57,164.11,7.56,47.73,37.13,82.28,81.68,82.28,34.55,0,64.1-20.37,75.03-53.24,5.63,42.52,30.69,52.79,56.27,52.79,35.46,0,61.91-19.55,62.66-55.01h-3.63ZM602,657.21c-3.3,16.37-18.08,36.83-36.1,36.83-20,0-27.43-18.18-32.18-48.19-9.29-58.64-2.83-170.02,40.81-170.02,20,0,27.45,15.46,27.37,52.28l.1,129.1h0ZM880.13,479.47l.33-3.64h-48.38l-.04-90.47h-3.64c-.75,26.82-2.13,55.46-15.3,72.74-17.32,14.09-44.47,17.73-76.29,17.73h-20l-.33,3.64h33.88v173.66c.11,49.55,27.64,65.46,58.09,65.46,35.46,0,63.66-20,64.88-58.19h-3.64c-1.69,20.91-9.68,33.64-21.49,33.64-16.37,0-15.88-22.73-16.03-40.91l-.09-173.66h48.04ZM1177.89,663.13c-1.21,18.18-9.2,30.91-19.2,30.91-16.83,0-15.88-22.73-16.03-40.91l.33-112.74c.03-40-12.62-68.19-52.62-68.19-33.82,0-69.05,23.95-96.5,81.64l1.52-130.28c.53-28.19-.73-67.74-44.37-67.74-28.64,0-59.09,17.28-76.88,34.1l2.4,3.64c7.25-5.91,13.03-9.55,20.31-9.55,16.36,0,16.37,17.27,16.3,34.09l.32,300.49c26.7-3.64,53.83-4.55,81.7-3.64l-.43-154.45c16.16-33.84,34.19-54.66,49.58-54.66,11.36,0,16.72,10.91,16.65,39.1l-.14,108.2c.12,49.55,27.64,65.46,58.09,65.46,35.47,0,61.84-20,62.59-55.46h-3.63ZM1289.86,718.59c59.56,0,129.34-27.28,119.54-89.1-13.11-82.74-150-65.92-158.35-118.65-3.96-25,24.91-35,49.92-35,22.73,0,39.94,8.18,42.24,22.73,1.73,10.91-5.4,20.46-14.96,23.18,2.95,18.64,20.37,28.19,36.28,28.19,18.64,0,31.93-13.64,28.77-33.64-5.54-35-54.71-44.1-92-44.1-57.73,0-121.99,27.73-113.06,84.1,13.03,82.28,153.28,72.28,161.42,123.65,4.54,28.64-37.64,35-59.01,35-33.64,0-46.56-12.73-48.58-25.46-2.01-12.73,4.23-25,15.08-28.18-2.33-20.46-21.64-30.46-37.55-30.46-22.73,0-36.14,18.64-33.11,37.73,5.83,36.82,59.29,50.01,103.38,50.01h0ZM1414.99,786.78c113.7-5.46,124.9-86.83,124.73-165.47l.1-76.83c.15-82.28-15.8-160.02-124.79-165.02l-.03,2.73c65.06,3.18,64.12,80.46,63.9,133.65l-.05,134.56c-.09,48.19,2.4,130.02-63.84,133.65l-.03,2.73h0Z"/>
  </g>
  <g>
    <path d="M2350.45,343.82h95.64v-30.16h-63.62v-26.44h55.77v-30.16h-55.77v-25.61h62.59v-30.16h-94.61v142.53h0ZM2465.09,343.82h30.16v-57.22c0-13.01,8.88-21.48,21.9-21.48,12.19,0,20.24,8.26,20.24,21.07v57.63h30.16v-67.75c0-24.17-16.11-40.07-40.28-40.07-13.01,0-23.75,4.34-32.02,12.81v-10.33h-30.16v105.35h0ZM2635.91,346.3c12.81,0,23.75-4.75,31.81-13.01v10.53h30.16v-105.35h-30.16v10.54c-8.06-8.26-19-13.01-31.81-13.01-28.92,0-50.82,23.75-50.82,55.15s21.9,55.15,50.82,55.15h0ZM2641.9,317.18c-14.67,0-25.61-11.15-25.61-26.03s10.95-26.03,25.61-26.03,25.82,11.15,25.82,26.03-10.95,26.03-25.82,26.03h0ZM2721.84,343.82h30.16v-57.22c0-13.01,8.88-21.48,21.9-21.48,12.19,0,20.24,8.26,20.24,21.07v57.63h30.16v-67.75c0-24.17-16.11-40.07-40.28-40.07-13.01,0-23.75,4.34-32.02,12.81v-10.33h-30.16v105.35h0Z"/>
    <path d="M2350.45,185.42h75.6c23.14,0,40.28-16.11,40.28-38.63,0-16.94-9.3-32.02-22.72-37.18,9.09-5.58,15.49-17.15,15.49-30.16,0-21.28-16.53-36.56-38.01-36.56h-70.64v142.53h0ZM2413.04,71.81c7.64,0,13.22,5.58,13.22,13.43s-5.78,13.43-13.22,13.43h-31.6v-26.85h31.6ZM2418.2,125.72c8.68,0,15.29,6.82,15.29,15.49s-6.61,15.29-15.29,15.29h-36.77v-30.78h36.77ZM2482.24,185.42h30.16v-49.16c0-16.32,11.36-26.85,31.81-26.85h4.13v-30.98h-4.13c-12.81,0-23.75,5.99-31.81,16.32v-14.67h-30.16v105.35h0ZM2605.35,187.9c12.81,0,23.75-4.75,31.81-13.01v10.54h30.16v-105.35h-30.16v10.54c-8.06-8.26-19-13.01-31.81-13.01-28.92,0-50.81,23.75-50.81,55.15s21.9,55.15,50.81,55.15h0ZM2611.34,158.77c-14.67,0-25.61-11.15-25.61-26.03s10.95-26.03,25.61-26.03,25.82,11.15,25.82,26.03-10.95,26.03-25.82,26.03h0ZM2691.28,185.42h30.16v-59.28c0-11.57,8.06-19.42,19.83-19.42,10.95,0,18.18,7.64,18.18,19v59.7h30.16v-59.28c0-11.57,8.06-19.42,19.83-19.42,10.95,0,18.18,7.64,18.18,19v59.7h30.16v-68.79c0-23.55-15.29-39.04-38.22-39.04-15.08,0-27.06,5.99-35.53,17.14-6.4-10.74-17.97-17.14-32.64-17.14-11.98,0-22.1,4.13-29.95,12.39v-9.92h-30.16v105.35h0ZM2901.35,185.42h30.98l20.24-68.58,20.24,68.58h30.99l36.97-105.35h-33.46l-19,66.1-19.83-66.1h-30.78l-20.04,66.1-19-66.1h-34.29l36.98,105.35h0ZM3098.83,187.9c26.02,0,47.09-14.46,54.94-35.74h-32.22c-4.35,5.78-12.19,9.91-21.9,9.91-12.61,0-22.31-7.64-25.62-19.62h80.55c.63-2.68.83-6.2.83-9.09,0-32.22-24.58-55.77-56.8-55.77s-56.81,23.75-56.81,55.15,24.37,55.15,57.02,55.15h0ZM3098.62,103.41c11.98,0,21.48,7.44,24.58,19h-48.95c3.3-11.57,12.39-19,24.37-19h0ZM3173.19,185.42h30.16V36.69h-30.16v148.73h0ZM3228.13,185.42h30.16V36.69h-30.16v148.73h0Z"/>
    <path d="M2769.76,714.26c42.55,0,73.33-31.4,73.33-73.12v-10.95h-68.99v28.92h34.08c-5.58,14.67-20.45,24.38-38.42,24.38-24.17,0-42.55-18.38-42.55-42.97s18.38-42.97,42.55-42.97c14.87,0,27.27,6.82,34.29,17.35h35.74c-7.64-28.09-35.94-48.13-70.03-48.13-42.97,0-75.4,31.81-75.4,73.74s32.43,73.74,75.4,73.74h0ZM2861.89,711.78h30.16v-49.16c0-16.32,11.36-26.85,31.81-26.85h4.13v-30.98h-4.13c-12.81,0-23.75,5.99-31.81,16.32v-14.67h-30.16v105.35h0ZM2980.66,714.26c12.39,0,22.72-4.34,30.57-12.81v10.33h30.16v-105.35h-30.16v58.66c0,11.98-8.26,20.04-20.45,20.04-11.36,0-18.8-7.85-18.8-19.62v-59.08h-30.16v68.17c0,23.96,15.49,39.66,38.83,39.66h0ZM3065.35,711.78h30.16v-57.22c0-13.01,8.88-21.48,21.9-21.48,12.18,0,20.24,8.26,20.24,21.07v57.63h30.16v-67.75c0-24.17-16.11-40.07-40.27-40.07-13.02,0-23.76,4.34-32.02,12.81v-10.33h-30.16v105.35h0ZM3224.61,714.26c25.62,0,43.17-14.25,43.17-35.32,0-37.59-56.8-28.5-56.8-43.38,0-4.75,5.16-7.85,11.97-7.85,7.65,0,13.23,3.72,13.23,9.3h29.95c0-19-17.76-33.05-42.97-33.05-23.13,0-41.93,11.77-41.93,34.08,0,38.01,56.6,28.51,56.6,44,0,4.75-5.58,8.26-13.21,8.26-8.68,0-14.88-4.34-14.88-10.54h-30.16c0,19.62,18.18,34.5,45.04,34.5h0ZM3285.55,711.78h30.16v-25.61l10.11-10.74,27.27,36.36h38.63l-45.03-58.66,43.58-46.68h-38.21l-36.35,40.28v-83.66h-30.16v148.73h0ZM3418.77,751.03h32.23l58.87-144.6h-33.67l-24.16,66.93-24.38-66.93h-34.5l42.35,104.11-16.74,40.49h0Z"/>
    <path d="M2775.55,561.57h32.02v-95.02l38.42,71.06h18.18l38.63-71.06v95.02h32.02v-142.53h-39.25l-40.28,73.54-40.07-73.54h-39.66v142.53h0ZM3005.24,564.05c12.81,0,23.76-4.75,31.82-13.01v10.53h30.15v-105.35h-30.15v10.53c-8.06-8.26-19.01-13.01-31.82-13.01-28.91,0-50.81,23.75-50.81,55.15s21.9,55.15,50.81,55.15h0ZM3011.24,534.93c-14.67,0-25.62-11.16-25.62-26.03s10.95-26.03,25.62-26.03,25.82,11.16,25.82,26.03-10.95,26.03-25.82,26.03h0ZM3134.34,561.57h15.09v-27.47h-10.54c-7.85,0-12.39-4.34-12.39-11.77v-38.63h22.93v-27.47h-22.93v-27.68h-28.51v19c0,5.78-2.88,8.68-8.67,8.68h-8.68v27.47h15.7v43.58c0,22.52,13.02,34.29,38.01,34.29h0ZM3211.8,561.57h15.09v-27.47h-10.54c-7.85,0-12.39-4.34-12.39-11.77v-38.63h22.93v-27.47h-22.93v-27.68h-28.51v19c0,5.78-2.89,8.68-8.67,8.68h-8.68v27.47h15.7v43.58c0,22.52,13.02,34.29,38.01,34.29h0ZM3242.37,561.57h30.16v-57.22c0-13.01,8.89-21.48,21.9-21.48,12.19,0,20.25,8.26,20.25,21.07v57.63h30.16v-67.75c0-24.17-16.11-40.07-40.28-40.07-13.02,0-23.76,4.75-32.02,13.63v-54.53h-30.16v148.73h0ZM3383.25,443.21c10.74,0,18.8-7.85,18.8-18.59s-8.06-18.38-18.8-18.38-18.58,7.85-18.58,18.38,8.05,18.59,18.58,18.59h0ZM3368.17,561.57h30.16v-105.35h-30.16v105.35h0ZM3461.32,564.05c25.62,0,43.18-14.25,43.18-35.32,0-37.6-56.81-28.51-56.81-43.38,0-4.75,5.17-7.85,11.98-7.85,7.65,0,13.23,3.72,13.23,9.3h29.95c0-19-17.77-33.05-42.97-33.05-23.14,0-41.93,11.77-41.93,34.08,0,38.01,56.6,28.51,56.6,44,0,4.75-5.58,8.26-13.23,8.26-8.67,0-14.87-4.34-14.87-10.54h-30.16c0,19.62,18.18,34.5,45.03,34.5h0Z"/>
  </g>
</svg>